<mxfile host="app.diagrams.net" modified="2022-03-05T15:57:44.068Z" agent="5.0 (Windows NT 10.0; Win64; x64) AppleWebKit/537.36 (KHTML, like Gecko) Chrome/99.0.4844.51 Safari/537.36 Edg/99.0.1150.30" etag="CI9ZfPRcq-b7GtevvJlo" version="16.6.4" type="github">
  <diagram id="o5Ldl5G6vfXlZggUp4nJ" name="第 1 页">
    <mxGraphModel dx="1038" dy="556" grid="1" gridSize="10" guides="1" tooltips="1" connect="1" arrows="1" fold="1" page="1" pageScale="1" pageWidth="1654" pageHeight="2336" math="0" shadow="0">
      <root>
        <mxCell id="0" />
        <mxCell id="1" parent="0" />
        <mxCell id="oWoWvvXNDpOD9OW56_Fs-2" value="" style="rounded=1;whiteSpace=wrap;html=1;fillColor=#f5f5f5;fontColor=#333333;strokeColor=#666666;" vertex="1" parent="1">
          <mxGeometry x="220" y="110" width="470" height="310" as="geometry" />
        </mxCell>
        <mxCell id="oWoWvvXNDpOD9OW56_Fs-3" value="" style="rounded=1;whiteSpace=wrap;html=1;fillColor=#dae8fc;strokeColor=#6c8ebf;" vertex="1" parent="1">
          <mxGeometry x="342.5" y="240" width="225" height="150" as="geometry" />
        </mxCell>
        <mxCell id="oWoWvvXNDpOD9OW56_Fs-4" value="方法区" style="text;html=1;strokeColor=none;fillColor=none;align=center;verticalAlign=middle;whiteSpace=wrap;rounded=0;fontSize=21;fontStyle=1" vertex="1" parent="1">
          <mxGeometry x="395" y="150" width="120" height="30" as="geometry" />
        </mxCell>
        <mxCell id="oWoWvvXNDpOD9OW56_Fs-5" value="运行时常量池" style="text;html=1;strokeColor=none;fillColor=none;align=center;verticalAlign=middle;whiteSpace=wrap;rounded=0;fontSize=17;" vertex="1" parent="1">
          <mxGeometry x="387.5" y="250" width="130" height="30" as="geometry" />
        </mxCell>
        <mxCell id="oWoWvvXNDpOD9OW56_Fs-6" value="&lt;font style=&quot;font-size: 13px&quot;&gt;Class文件常量池表&lt;/font&gt;" style="rounded=1;whiteSpace=wrap;html=1;fontSize=17;fillColor=#d5e8d4;strokeColor=#82b366;" vertex="1" parent="1">
          <mxGeometry x="387.5" y="285" width="135" height="60" as="geometry" />
        </mxCell>
        <mxCell id="oWoWvvXNDpOD9OW56_Fs-7" value="其他运行常量" style="text;html=1;strokeColor=none;fillColor=none;align=center;verticalAlign=middle;whiteSpace=wrap;rounded=0;fontSize=13;" vertex="1" parent="1">
          <mxGeometry x="415" y="350" width="80" height="30" as="geometry" />
        </mxCell>
      </root>
    </mxGraphModel>
  </diagram>
</mxfile>
